<svg viewBox="0 0 52 52" fill="none" xmlns="http://www.w3.org/2000/svg">
    <path d="M44.6875 5.6875H7.3125C6.41367 5.6875 5.6875 6.41367 5.6875 7.3125V44.6875C5.6875 45.5863 6.41367 46.3125 7.3125 46.3125H44.6875C45.5863 46.3125 46.3125 45.5863 46.3125 44.6875V7.3125C46.3125 6.41367 45.5863 5.6875 44.6875 5.6875ZM17.7379 40.3051H11.7102V20.9168H17.7379V40.3051ZM14.7266 18.266C14.0356 18.266 13.3601 18.0611 12.7855 17.6772C12.211 17.2933 11.7632 16.7477 11.4988 16.1093C11.2343 15.4709 11.1651 14.7684 11.2999 14.0907C11.4348 13.4129 11.7675 12.7904 12.2561 12.3018C12.7447 11.8132 13.3672 11.4805 14.045 11.3456C14.7227 11.2108 15.4252 11.28 16.0636 11.5445C16.702 11.8089 17.2476 12.2567 17.6315 12.8312C18.0154 13.4058 18.2203 14.0813 18.2203 14.7723C18.2152 16.702 16.6512 18.266 14.7266 18.266ZM40.3051 40.3051H34.2824V30.875C34.2824 28.6254 34.2418 25.7359 31.1492 25.7359C28.016 25.7359 27.5336 28.1836 27.5336 30.7125V40.3051H21.516V20.9168H27.2949V23.5676H27.3762C28.1785 22.0441 30.1438 20.4344 33.0789 20.4344C39.1828 20.4344 40.3051 24.4512 40.3051 29.6715V40.3051V40.3051Z" fill="white"/>
</svg>