<svg viewBox="0 0 74 74" fill="none" xmlns="http://www.w3.org/2000/svg">
    <path d="M68.0236 21.3979C67.655 20.0251 66.9324 18.7732 65.9279 17.7675C64.9235 16.7618 63.6725 16.0375 62.3002 15.6672C57.2488 14.3086 37 14.3086 37 14.3086C37 14.3086 16.7512 14.3086 11.6998 15.66C10.3269 16.0291 9.0753 16.7529 8.07067 17.7588C7.06604 18.7647 6.34376 20.0173 5.97637 21.3906C4.625 26.4492 4.625 37 4.625 37C4.625 37 4.625 47.5508 5.97637 52.6022C6.7207 55.3916 8.91758 57.5885 11.6998 58.3328C16.7512 59.6914 37 59.6914 37 59.6914C37 59.6914 57.2488 59.6914 62.3002 58.3328C65.0896 57.5885 67.2793 55.3916 68.0236 52.6022C69.375 47.5508 69.375 37 69.375 37C69.375 37 69.375 26.4492 68.0236 21.3979ZM30.5684 46.6836V27.3164L47.334 36.9277L30.5684 46.6836Z" fill="white"/>
</svg>