<svg width="45" height="44" viewBox="0 0 45 44" fill="none" xmlns="http://www.w3.org/2000/svg">
    <path d="M4.00391 0C1.81641 0 0.00390625 1.8125 0.00390625 4V40C0.00390625 42.1875 1.81641 44 4.00391 44H40.0039C42.1914 44 44.0039 42.1875 44.0039 40V4C44.0039 1.8125 42.1914 0 40.0039 0H4.00391ZM4.00391 4H40.0039V40H29.6289V26.5H34.8164L35.5664 20.5H29.6289V16.625C29.6289 14.875 30.0586 13.6875 32.5664 13.6875H35.8164V8.25C35.2617 8.17969 33.3398 8.0625 31.1289 8.0625C26.5195 8.0625 23.3789 10.8359 23.3789 16V20.5H18.1289V26.5H23.3789V40H4.00391V4Z" fill="white"/>
</svg>