<svg width="53" height="44" viewBox="0 0 53 44" fill="none" xmlns="http://www.w3.org/2000/svg">
    <path d="M52.0039 5.875C50.0898 6.72266 48.0352 7.29688 45.875 7.55469C48.0781 6.23438 49.7695 4.14453 50.5664 1.65234C48.5078 2.875 46.2227 3.76172 43.7891 4.24219C41.8438 2.16797 39.0703 0.871094 36.0039 0.871094C30.1133 0.871094 25.3359 5.64844 25.3359 11.5391C25.3359 12.375 25.4336 13.1914 25.6133 13.9688C16.7461 13.5273 8.88672 9.27734 3.62109 2.82031C2.70703 4.39844 2.17969 6.23047 2.17969 8.1875C2.17969 11.8867 4.0625 15.1523 6.92578 17.0664C5.17578 17.0117 3.53125 16.5312 2.09375 15.7305C2.09375 15.7773 2.09375 15.8203 2.09375 15.8672C2.09375 21.0352 5.76953 25.3477 10.6484 26.3242C9.75781 26.5703 8.8125 26.6992 7.83984 26.6992C7.15234 26.6992 6.48047 26.6328 5.83203 26.5117C7.19141 30.7461 11.1289 33.8359 15.7969 33.9219C12.1484 36.7812 7.54688 38.4883 2.54688 38.4883C1.6875 38.4883 0.839844 38.4375 0 38.3398C4.72266 41.3633 10.3281 43.1289 16.3555 43.1289C35.9805 43.1289 46.707 26.875 46.707 12.7773C46.707 12.3125 46.6992 11.8555 46.6797 11.3945C48.7656 9.89062 50.5742 8.01172 52.0039 5.875Z" fill="white"/>
</svg>