<svg viewBox="0 0 49 49" fill="none" xmlns="http://www.w3.org/2000/svg">
    <path d="M24.5 0C17.8513 0 17.0153 0.030625 14.4029 0.147C11.7906 0.2695 10.0113 0.679875 8.4525 1.28625C6.81741 1.90126 5.33638 2.86597 4.11294 4.11294C2.86673 5.33701 1.90214 6.81786 1.28625 8.4525C0.679875 10.0083 0.266438 11.7906 0.147 14.3937C0.030625 17.0122 0 17.8452 0 24.5031C0 31.1548 0.030625 31.9878 0.147 34.6001C0.2695 37.2094 0.679875 38.9887 1.28625 40.5475C1.91406 42.1584 2.75013 43.5242 4.11294 44.8871C5.47269 46.2499 6.83856 47.089 8.44944 47.7137C10.0113 48.3201 11.7876 48.7336 14.3968 48.853C17.0122 48.9694 17.8452 49 24.5 49C31.1548 49 31.9848 48.9694 34.6001 48.853C37.2063 48.7305 38.9918 48.3201 40.5506 47.7137C42.1846 47.0984 43.6646 46.1337 44.8871 44.8871C46.2499 43.5242 47.0859 42.1584 47.7137 40.5475C48.3171 38.9887 48.7305 37.2094 48.853 34.6001C48.9694 31.9878 49 31.1548 49 24.5C49 17.8452 48.9694 17.0122 48.853 14.3968C48.7305 11.7906 48.3171 10.0083 47.7137 8.4525C47.0979 6.81782 46.1333 5.33694 44.8871 4.11294C43.664 2.86551 42.1829 1.90073 40.5475 1.28625C38.9856 0.679875 37.2032 0.266438 34.5971 0.147C31.9817 0.030625 31.1518 0 24.4939 0H24.5031H24.5ZM22.3042 4.41613H24.5031C31.0446 4.41613 31.8194 4.43756 34.4011 4.557C36.7898 4.66419 38.0883 5.06538 38.9519 5.39919C40.0942 5.84325 40.9119 6.37612 41.7694 7.23362C42.6269 8.09112 43.1568 8.90575 43.6008 10.0511C43.9377 10.9117 44.3358 12.2102 44.443 14.5989C44.5624 17.1806 44.5869 17.9554 44.5869 24.4939C44.5869 31.0323 44.5624 31.8102 44.443 34.3919C44.3358 36.7806 43.9346 38.0761 43.6008 38.9397C43.208 40.0035 42.5811 40.9653 41.7664 41.7541C40.9089 42.6116 40.0943 43.1414 38.9489 43.5855C38.0914 43.9224 36.7929 44.3205 34.4011 44.4308C31.8194 44.5471 31.0446 44.5747 24.5031 44.5747C17.9616 44.5747 17.1837 44.5471 14.602 44.4308C12.2133 44.3205 10.9178 43.9224 10.0542 43.5855C8.98997 43.1933 8.0272 42.5675 7.23669 41.7541C6.4213 40.9641 5.7934 40.0013 5.39919 38.9366C5.06538 38.0761 4.66419 36.7776 4.557 34.3888C4.44063 31.8071 4.41613 31.0323 4.41613 24.4877C4.41613 17.9462 4.44063 17.1745 4.557 14.5928C4.66725 12.2041 5.06538 10.9056 5.40225 10.0419C5.84631 8.89963 6.37919 8.08194 7.23669 7.22444C8.09419 6.36694 8.90881 5.83713 10.0542 5.39306C10.9178 5.05619 12.2133 4.65806 14.602 4.54781C16.8621 4.44369 17.738 4.41306 22.3042 4.41V4.41613V4.41613ZM37.5799 8.48312C37.1939 8.48312 36.8115 8.55917 36.4548 8.70692C36.0981 8.85467 35.774 9.07123 35.501 9.34423C35.228 9.61724 35.0115 9.94134 34.8637 10.298C34.716 10.6547 34.6399 11.037 34.6399 11.4231C34.6399 11.8092 34.716 12.1915 34.8637 12.5482C35.0115 12.9049 35.228 13.229 35.501 13.502C35.774 13.775 36.0981 13.9916 36.4548 14.1393C36.8115 14.2871 37.1939 14.3631 37.5799 14.3631C38.3597 14.3631 39.1075 14.0534 39.6588 13.502C40.2102 12.9507 40.5199 12.2029 40.5199 11.4231C40.5199 10.6434 40.2102 9.89559 39.6588 9.34423C39.1075 8.79287 38.3597 8.48312 37.5799 8.48312V8.48312ZM24.5031 11.9192C22.8342 11.8932 21.1769 12.1994 19.6275 12.8201C18.0781 13.4407 16.6677 14.3633 15.4783 15.5343C14.289 16.7053 13.3444 18.1011 12.6997 19.6406C12.055 21.1801 11.7229 22.8325 11.7229 24.5015C11.7229 26.1706 12.055 27.823 12.6997 29.3625C13.3444 30.902 14.289 32.2978 15.4783 33.4688C16.6677 34.6397 18.0781 35.5624 19.6275 36.183C21.1769 36.8036 22.8342 37.1098 24.5031 37.0838C27.8061 37.0323 30.9564 35.684 33.274 33.33C35.5916 30.9759 36.8906 27.805 36.8906 24.5015C36.8906 21.1981 35.5916 18.0271 33.274 15.6731C30.9564 13.3191 27.8061 11.9708 24.5031 11.9192V11.9192ZM24.5031 16.3323C26.6693 16.3323 28.7468 17.1928 30.2785 18.7246C31.8102 20.2563 32.6708 22.3338 32.6708 24.5C32.6708 26.6662 31.8102 28.7437 30.2785 30.2754C28.7468 31.8072 26.6693 32.6677 24.5031 32.6677C22.3369 32.6677 20.2594 31.8072 18.7276 30.2754C17.1959 28.7437 16.3354 26.6662 16.3354 24.5C16.3354 22.3338 17.1959 20.2563 18.7276 18.7246C20.2594 17.1928 22.3369 16.3323 24.5031 16.3323V16.3323Z" fill="white"/>
</svg>    